nColumns=19
nRows=43
DataType=double
version=2
endheader
time	ground_force_1_vx	ground_force_1_vy	ground_force_1_vz	ground_force_1_px	ground_force_1_py	ground_force_1_pz	ground_moment_1_mx	ground_moment_1_my	ground_moment_1_mz	ground_force_2_vx	ground_force_2_vy	ground_force_2_vz	ground_force_2_px	ground_force_2_py	ground_force_2_pz	ground_moment_2_mx	ground_moment_2_my	ground_moment_2_mz
4.38	-4.058953626472447	681.9213527477228	-3.769080966757338	0.367292835883849	0.0041691247864733	0.1410758993504952	0.03495258478250576	4.173845746507313	0.01592185889212202	0	0	0	0.8952113342285156	0.002086591646075249	0.2021185622215271	0	0	0
4.381	-3.947932415952494	682.0769746810523	-3.446402589819965	0.3673739619719428	0.004168305725162896	0.1411125200176133	0.0357756127742167	4.272127229946515	0.0162967706655954	0	0	0	0.8952113342285156	0.002086591646075249	0.2021185622215271	0	0	0
4.382	-3.836909743842902	682.2326576408371	-3.123724463175554	0.3674550804310738	0.004167486727546964	0.1411491407350433	0.03659864076592764	4.370408713385717	0.01667168243906879	0	0	0	0.8952113342285156	0.002086591646075249	0.2021185622215271	0	0	0
4.383	-3.72588853645212	682.3882795760118	-2.801046563061502	0.3675361912612422	0.004166667793625507	0.141185761502785	0.03742166466885085	4.468689708564343	0.01704659234998748	0	0	0	0.8952113342285156	0.002086591646075249	0.2021185622215271	0	0	0
4.384	-3.614866375440993	682.5439015032246	-2.478368669236429	0.3676173173493359	0.004165848732315102	0.1412223821699031	0.03824469266056179	4.566971192003544	0.01742150412346086	0	0	0	0.8952113342285156	0.002086591646075249	0.2021185622215271	0	0	0
4.385	-3.503870124896048	682.6995237413529	-2.155715400421605	0.3676984205755749	0.004165029847327083	0.1412590068025432	0.03906767158682007	4.665246816315814	0.01779639354627782	0	0	0	0.8952113342285156	0.002086591646075249	0.2021185622215271	0	0	0
4.386	-3.609129628258641	682.8929905663254	-2.046669790243059	0.3677131080742937	0.004164839684910666	0.1412766142031988	0.03947817769650214	4.714267201802993	0.01798339031328039	0	0	0	0.8952113342285156	0.002086591646075249	0.2021185622215271	0	0	0
4.387	-3.714390082112405	683.0864573974146	-1.937623696952215	0.3677278108810047	0.004164649365583228	0.1412942291324038	0.03988868380618421	4.763287587290174	0.01817038708028296	0	0	0	0.8952113342285156	0.002086591646075249	0.2021185622215271	0	0	0
4.388	-3.81965009657346	683.2798631898148	-1.828578319593006	0.3677424983797235	0.004164459203166812	0.1413118365330594	0.04029918582707856	4.812307484516777	0.01835738198473083	0	0	0	0.8952113342285156	0.002086591646075249	0.2021185622215271	0	0	0
4.389	-3.924910550427225	683.4733300209039	-1.719532226302161	0.367757185928509	0.004164269011228322	0.1413294515628881	0.04070969193676063	4.861327870003956	0.01854437875173341	0	0	0	0.8952113342285156	0.002086591646075249	0.2021185622215271	0	0	0
4.39	-4.030144038752239	683.6667356937008	-1.610513727140325	0.3677718734272278	0.004164078848811905	0.1413470589635437	0.04112009582674967	4.910336048976693	0.01873132895486842	0	0	0	0.8952113342285156	0.002086591646075249	0.2021185622215271	0	0	0
4.391	-3.819903767216043	683.4209487465705	-2.043198273578948	0.367785132002892	0.004164136999734173	0.1413027089618042	0.0404509738936708	4.830433181945416	0.01842652560294471	0	0	0	0.8952113342285156	0.002086591646075249	0.2021185622215271	0	0	0
4.392	-3.609621566367683	683.1751006872011	-2.475955336162395	0.3677983905535229	0.004164195165417476	0.1412583551454782	0.03978171294180941	4.750513714054495	0.01812165892416112	0	0	0	0.8952113342285156	0.002086591646075249	0.2021185622215271	0	0	0
4.393	-3.399338411898978	682.9292526198698	-2.908712405034822	0.3678116490791205	0.004164253345861817	0.1412139975145655	0.03911244381237255	4.67059326964242	0.01781678852026812	0	0	0	0.8952113342285156	0.002086591646075249	0.2021185622215271	0	0	0
4.394	-3.189056211050616	682.6834045605004	-3.341469467618269	0.3678249152587141	0.004164311447850647	0.1411696436479277	0.03844318286051115	4.590673801751499	0.01751192184148452	0	0	0	0.8952113342285156	0.002086591646075249	0.2021185622215271	0	0	0
4.395	-2.978773499103792	682.4376175337032	-3.774226297382379	0.3678381737843117	0.004164369628294987	0.1411252860170151	0.03777391373107431	4.510753357339423	0.01720705143759152	0	0	0	0.8952113342285156	0.002086591646075249	0.2021185622215271	0	0	0
4.396	-2.975085474221827	682.535740501808	-3.343559508126855	0.3678654490713945	0.004164056631070674	0.1411474605854203	0.03805741800533301	4.544607881020419	0.01733619539298563	0	0	0	0.8952113342285156	0.002086591646075249	0.2021185622215271	0	0	0
4.397	-2.971424798979815	682.6339243003532	-2.912778336608964	0.3678927167545478	0.004163743682779798	0.141169639018724	0.03834104494322337	4.578477052518748	0.01746539522502081	0	0	0	0.8952113342285156	0.002086591646075249	0.2021185622215271	0	0	0
4.398	-2.96776412060863	682.7321080970535	-2.481996688267751	0.3679199920666639	0.004163430670794448	0.1411918174017158	0.03862467596990145	4.612346712277654	0.01759459691961068	0	0	0	0.8952113342285156	0.002086591646075249	0.2021185622215271	0	0	0
4.399	-2.964102931138981	682.8303529263259	-2.051214807107201	0.3679472674288468	0.004163117629287024	0.1412140034138808	0.03890830699657954	4.646216372036561	0.01772379861420056	0	0	0	0.8952113342285156	0.002086591646075249	0.2021185622215271	0	0	0
4.4	-2.960482951783809	682.9285368845611	-1.620386159654459	0.3679745427659963	0.004162804602540637	0.1412361856114592	0.03919197073355939	4.680089937880091	0.01785301520922806	0	0	0	0.8952113342285156	0.002086591646075249	0.2021185622215271	0	0	0
4.401	-3.391983854934041	682.8822556213162	-1.725339705721436	0.3679856357532952	0.004162693971389952	0.1412408351174726	0.03917223824401452	4.677733592331761	0.0178440265202347	0	0	0	0.8952113342285156	0.002086591646075249	0.2021185622215271	0	0	0
4.402	-3.823484758084271	682.8359743580712	-1.830293251788413	0.3679967439734862	0.004162583227611355	0.1412454807082758	0.03915250575446966	4.675377246783432	0.01783503783124136	0	0	0	0.8952113342285156	0.002086591646075249	0.2021185622215271	0	0	0
4.403	-4.254986175462138	682.7896320640991	-1.935247507498048	0.3680078369607851	0.00416247259646067	0.1412501302142892	0.03913277326492479	4.673020901235104	0.01782604914224801	0	0	0	0.8952113342285156	0.002086591646075249	0.2021185622215271	0	0	0
4.404	-4.686486124992026	682.7433507928923	-2.040201059854003	0.368018929948084	0.004162361965309985	0.1412547797203026	0.03911304077537992	4.670664555686774	0.01781706045325466	0	0	0	0.8952113342285156	0.002086591646075249	0.2021185622215271	0	0	0
4.405	-5.11792490826555	682.6970689327893	-2.145134511301817	0.3680300305393123	0.004162251285225862	0.1412594253614176	0.03909330010825961	4.66830723361729	0.0178080680391519	0	0	0	0.8952113342285156	0.002086591646075249	0.2021185622215271	0	0	0
4.406	-4.900765983659609	682.8434700929047	-2.038386910967764	0.3680774230513975	0.004161841488031144	0.1412628131242258	0.03901825858720346	4.659346187233435	0.01777388457270039	0	0	0	0.8952113342285156	0.002086591646075249	0.2021185622215271	0	0	0
4.407	-4.683606616531786	682.9898102124861	-1.931639549742028	0.3681248231924454	0.004161431627141951	0.1412662008367222	0.03894322115493504	4.650385629110159	0.01773970296880359	0	0	0	0.8952113342285156	0.002086591646075249	0.2021185622215271	0	0	0
4.408	-4.466448199895138	683.1361503381842	-1.824891705403992	0.3681722156544639	0.004161021859469306	0.1412695809703572	0.03886817963387889	4.641424582726304	0.01770551950235209	0	0	0	0.8952113342285156	0.002086591646075249	0.2021185622215271	0	0	0
4.409	-4.249288321668852	683.2825514903378	-1.718144111358918	0.3682196157955119	0.004160611998580114	0.1412729686828536	0.03879314220161047	4.632464024603028	0.01767133789845528	0	0	0	0.8952113342285156	0.002086591646075249	0.2021185622215271	0	0	0
4.41	-4.032182529384697	683.4288921572626	-1.611422623233004	0.3682670006786343	0.00416020226507987	0.1412763564959736	0.03871812112449292	4.623505419522062	0.01763716374477729	0	0	0	0.8952113342285156	0.002086591646075249	0.2021185622215271	0	0	0
4.411	-4.143477709647365	683.2365281393636	-1.934190357430666	0.3682838062768948	0.004160155669645609	0.1412516786649747	0.03854525126840766	4.602862250554428	0.0175584167945183	0	0	0	0.8952113342285156	0.002086591646075249	0.2021185622215271	0	0	0
4.412	-4.254822467471643	683.0441037495726	-2.257023805328007	0.3683005966172299	0.004160109201600296	0.1412270009345995	0.03837236096838379	4.582216640283906	0.0174796605314858	0	0	0	0.8952113342285156	0.002086591646075249	0.2021185622215271	0	0	0
4.413	-4.366167222166753	682.8516793579364	-2.579856776402026	0.3683174021904571	0.004160062620927073	0.141202319289014	0.03819947475714763	4.56157151827396	0.01740090613100801	0	0	0	0.8952113342285156	0.002086591646075249	0.2021185622215271	0	0	0
4.414	-4.477511979991035	682.6592549681453	-2.902690224299367	0.3683342001347216	0.004160016103948323	0.1411776376937403	0.03802658854591149	4.540926396264016	0.01732215173053021	0	0	0	0.8952113342285156	0.002086591646075249	0.2021185622215271	0	0	0
4.415	-4.588856734686146	682.4668305765091	-3.225523195373387	0.3683509981040194	0.004159969572208536	0.1411529599130532	0.03785370642346305	4.520281762514649	0.01724339919260711	0	0	0	0.8952113342285156	0.002086591646075249	0.2021185622215271	0	0	0
4.416	-4.58893951595343	682.3741943760749	-3.118340252710603	0.3683994259514053	0.004159481455833508	0.1411746058789204	0.03816243851796458	4.557148853960499	0.01738403511051448	0	0	0	0.8952113342285156	0.002086591646075249	0.2021185622215271	0	0	0
4.417	-4.589006168076889	682.2814967549349	-3.011092324984852	0.3684478614527875	0.004158993261002968	0.1411962556090622	0.03847124421064509	4.59402473409675	0.01752470455440648	0	0	0	0.8952113342285156	0.002086591646075249	0.2021185622215271	0	0	0
4.418	-4.589072305972713	682.188860164522	-2.903843687616444	0.3684963046081657	0.004158504987716919	0.1412179091034788	0.03878004990332562	4.630900614233001	0.01766537399829848	0	0	0	0.8952113342285156	0.002086591646075249	0.2021185622215271	0	0	0
4.419	-4.589138446997708	682.0962235759545	-2.796595527071355	0.368544747763544	0.004158016714430869	0.1412395625978954	0.03908885559600613	4.667776494369251	0.01780604344219049	0	0	0	0.8952113342285156	0.002086591646075249	0.2021185622215271	0	0	0
4.42	-4.589213409466374	682.0035258659444	-2.689306059115887	0.3685931909439555	0.004157528426383782	0.1412612199068986	0.03939771444292704	4.704658721893012	0.01794673709929362	0	0	0	0.8952113342285156	0.002086591646075249	0.2021185622215271	0	0	0
4.421	-4.69348222694139	682.149348209112	-2.365238448458785	0.3686290965481201	0.004157279712332931	0.1412475971514176	0.03947289907155344	4.713636857397089	0.01798098575515971	0	0	0	0.8952113342285156	0.002086591646075249	0.2021185622215271	0	0	0
4.422	-4.797752506006045	682.2951095258239	-2.04117058750872	0.3686650097812475	0.004157030934587606	0.1412339743456248	0.03954807961139212	4.722614504640588	0.01801523254847109	0	0	0	0.8952113342285156	0.002086591646075249	0.2021185622215271	0	0	0
